<svg xmlns="http://www.w3.org/2000/svg" version="1.1" xmlns:xlink="http://www.w3.org/1999/xlink" width="1000" height="1000"><g clip-path="url(#SvgjsClipPath1003)"><rect width="1000" height="1000" fill="#ffffff"></rect><g transform="matrix(3.5,0,0,3.5,150,150)"><svg xmlns="http://www.w3.org/2000/svg" version="1.1" xmlns:xlink="http://www.w3.org/1999/xlink" width="200" height="200"><svg xmlns="http://www.w3.org/2000/svg" version="1.1" xmlns:xlink="http://www.w3.org/1999/xlink" viewBox="0 0 200 200"><rect width="200" height="200" fill="url('#gradient')"></rect><defs><linearGradient id="gradient" gradientTransform="rotate(45 0.5 0.5)"><stop offset="0%" stop-color="#dee90b"></stop><stop offset="100%" stop-color="#d9e241"></stop></linearGradient><clipPath id="SvgjsClipPath1003"><rect width="1000" height="1000" x="0" y="0" rx="350" ry="350"></rect></clipPath></defs><g><g fill="#1b3855" transform="matrix(3.812892715848266,0,0,3.812892715848266,15.905985225070935,127.10904258524286)" stroke="#0e5278" stroke-width="0"><path d="M6.69-4.82L4.50-4.82L4.50 0L1.07 0L1.07-14.22L6.75-14.22Q8.38-14.22 9.63-13.62Q10.89-13.02 11.58-11.91Q12.27-10.80 12.27-9.39L12.27-9.39Q12.27-7.31 10.78-6.07Q9.29-4.82 6.69-4.82L6.69-4.82ZM4.50-11.57L4.50-7.47L6.75-7.47Q7.74-7.47 8.27-7.97Q8.79-8.47 8.79-9.38L8.79-9.38Q8.79-10.37 8.25-10.97Q7.71-11.56 6.79-11.57L6.79-11.57L4.50-11.57ZM19.86 0L14.09 0L14.09-14.22L19.20-14.22Q21.94-14.22 23.37-13.21Q24.80-12.21 24.80-10.29L24.80-10.29Q24.80-9.19 24.30-8.41Q23.79-7.63 22.80-7.26L22.80-7.26Q23.92-6.96 24.51-6.16Q25.11-5.36 25.11-4.21L25.11-4.21Q25.11-2.12 23.78-1.07Q22.46-0.02 19.86 0L19.86 0ZM19.92-6.04L17.52-6.04L17.52-2.64L19.77-2.64Q20.69-2.64 21.19-3.06Q21.69-3.49 21.69-4.26L21.69-4.26Q21.69-6.04 19.92-6.04L19.92-6.04ZM17.52-11.57L17.52-8.29L19.31-8.29Q20.43-8.30 20.91-8.70Q21.39-9.10 21.39-9.88L21.39-9.88Q21.39-10.78 20.87-11.18Q20.35-11.57 19.20-11.57L19.20-11.57L17.52-11.57ZM36.03-14.22L38.01-5.30L39.64-14.22L43.04-14.22L40.02 0L36.46 0L34.56-8.11L32.70 0L29.15 0L26.12-14.22L29.53-14.22L31.16-5.30L33.12-14.22L36.03-14.22Z"></path></g></g></svg></svg></g></g></svg>